<?xml version="1.0" encoding="UTF-8"?>
<svg width="20" height="20" viewBox="0 0 20 20" xmlns="http://www.w3.org/2000/svg"><path d="M18.125 10H15V7.143c0-1.576 1.121-2.857 2.5-2.857h.313c.519 0 .937-.478.937-1.072V1.071C18.75.478 18.332 0 17.812 0H17.5c-3.453 0-6.25 3.196-6.25 7.143v10.714c0 1.183.84 2.143 1.875 2.143h5C19.16 20 20 19.04 20 17.857v-5.714C20 10.96 19.16 10 18.125 10zm0 0c-11.25 0 0 0 0 0H3.75V7.143c0-1.576 1.121-2.857 2.5-2.857h.313c.519 0 .937-.478.937-1.072V1.071C7.5.478 7.082 0 6.562 0H6.25C2.797 0 0 3.196 0 7.143v10.714C0 19.04.84 20 1.875 20h5c1.035 0 1.875-.96 1.875-2.143v-5.714C8.75 10.96 7.91 10 6.875 10h11.25z" fill="#fff" fill-rule="nonzero"/></svg>